<svg xmlns="http://www.w3.org/2000/svg" width="579" height="409.45" viewBox="0 0 579 409.45"><defs><style>.cls-1{font-size:18px;font-family:ObjektivMk2-Regular, Objektiv Mk2;}.cls-1,.cls-10{fill:#313131;}.cls-2{letter-spacing:-0.02em;}.cls-3{letter-spacing:0.02em;}.cls-4{letter-spacing:-0.01em;}.cls-5{letter-spacing:-0.03em;}.cls-6{letter-spacing:-0.05em;}.cls-7{letter-spacing:0.01em;}.cls-11,.cls-8{fill:#fff;}.cls-8{stroke:#313131;stroke-miterlimit:10;stroke-width:3px;}.cls-9{fill:#74a3cf;}.cls-11{font-size:21px;font-family:ObjektivMk2-Medium, Objektiv Mk2;font-weight:500;}.cls-12{letter-spacing:-0.03em;}.cls-13{letter-spacing:-0.01em;}.cls-14{letter-spacing:0.01em;}.cls-15{letter-spacing:0em;}.cls-16{letter-spacing:0.01em;}</style></defs><g id="Layer_2" data-name="Layer 2"><g id="Layer_1-2" data-name="Layer 1"><text class="cls-1" transform="translate(247.64 15.84)">Intelligent <tspan x="-7.35" y="21.6">in</tspan><tspan class="cls-2" x="8.4" y="21.6">f</tspan><tspan x="15.26" y="21.6">ormation </tspan><tspan x="-28.9" y="43.2">a</tspan><tspan class="cls-2" x="-17" y="43.2">r</tspan><tspan x="-9.85" y="43.2">chit</tspan><tspan class="cls-3" x="23.48" y="43.2">e</tspan><tspan x="34.44" y="43.2">ctu</tspan><tspan class="cls-2" x="62.95" y="43.2">r</tspan><tspan x="70.1" y="43.2">e and </tspan><tspan class="cls-4" x="-0.04" y="64.8">ow</tspan><tspan x="25.66" y="64.8">ernship</tspan></text><text class="cls-1" transform="translate(15.73 332.34)">Matching <tspan x="1.56" y="21.6">Michigan </tspan><tspan x="9.1" y="43.2">Onlin</tspan><tspan class="cls-5" x="56.62" y="43.2">e</tspan><tspan class="cls-6" x="66.68" y="43.2">’</tspan><tspan x="69.16" y="43.2">s </tspan><tspan x="8.78" y="64.8">identi</tspan><tspan class="cls-7" x="59.78" y="64.8">t</tspan><tspan x="67.84" y="64.8">y</tspan></text><text class="cls-1" transform="translate(483.68 331.34)"><tspan class="cls-4">P</tspan><tspan class="cls-2" x="11.12" y="0">r</tspan><tspan x="18.27" y="0">o</tspan><tspan class="cls-7" x="29.68" y="0">p</tspan><tspan x="41.76" y="0">erly </tspan><tspan x="-9.78" y="21.6">Displaying </tspan><tspan x="-11.55" y="43.2">in</tspan><tspan class="cls-2" x="4.2" y="43.2">f</tspan><tspan x="11.06" y="43.2">o </tspan><tspan class="cls-2" x="26.52" y="43.2">f</tspan><tspan x="33.38" y="43.2">or our </tspan><tspan class="cls-7" x="-3.24" y="64.8">p</tspan><tspan x="8.84" y="64.8">ersonas</tspan></text><path class="cls-8" d="M404.11,181.66a115.12,115.12,0,0,0-111.61,4.67,115.12,115.12,0,0,0-111.61-4.67,115,115,0,0,1,223.22,0Z"/><path class="cls-8" d="M292.5,382.57A115,115,0,1,1,180.89,181.66a115.13,115.13,0,0,0,60,130.58A115.11,115.11,0,0,0,292.5,382.57Z"/><path class="cls-8" d="M467.5,284.45a115,115,0,0,1-175,98.12,115.11,115.11,0,0,0,51.61-70.33,115.13,115.13,0,0,0,60-130.58A115,115,0,0,1,467.5,284.45Z"/><path class="cls-9" d="M292.5,323a112.32,112.32,0,0,1-50.32-11.74A113.64,113.64,0,0,1,292.5,188.09a113.64,113.64,0,0,1,50.32,123.12A112.32,112.32,0,0,1,292.5,323Z"/><path class="cls-10" d="M292.5,189.86a111.92,111.92,0,0,1,52,94.59,111.71,111.71,0,0,1-3,25.72,112.15,112.15,0,0,1-98,0,112.25,112.25,0,0,1,11.75-81.28,112.87,112.87,0,0,1,37.27-39m0-3.53a115.13,115.13,0,0,0-51.61,125.91,115.18,115.18,0,0,0,103.22,0A115.13,115.13,0,0,0,292.5,186.33Z"/><text class="cls-11" transform="translate(259.77 257.27)"><tspan class="cls-12">S<tspan class="cls-13" x="13.36" y="0">w</tspan><tspan class="cls-14" x="30.62" y="0">e</tspan><tspan class="cls-15" x="43.45" y="0">et </tspan></tspan><tspan x="7.31" y="25.2">S</tspan><tspan class="cls-16" x="21.29" y="25.2">p</tspan><tspan x="35.32" y="25.2">ot</tspan></text></g></g></svg>