<svg xmlns="http://www.w3.org/2000/svg" width="96.08" height="123.61" viewBox="0 0 96.08 123.61"><defs><style>.cls-1{fill:#787878;}</style></defs><title>Asset 2</title><g id="Layer_2" data-name="Layer 2"><g id="Layer_1-2" data-name="Layer 1"><path class="cls-1" d="M0,121q9.66-.27,14.28-7.17T18.9,90.5V14.62A24.59,24.59,0,0,0,18.07,7,4.94,4.94,0,0,0,15,3.86a27.42,27.42,0,0,0-7.24-1.1V0q5.79.42,17.38.41Q36.42.41,42.91,0V2.76a27.44,27.44,0,0,0-7.25,1.1A5,5,0,0,0,32.56,7a24.91,24.91,0,0,0-.83,7.58v50.5q0,11.73-.41,20.76a81.36,81.36,0,0,1-1.93,15.24A29.42,29.42,0,0,1,19.25,117.4Q11.59,123.61,0,123.61Z"/><path d="M85.73,7a5,5,0,0,1,3.11-3.17,27.26,27.26,0,0,1,7.24-1.11V0Q90.29.42,78.42.42C71,.42,65.11.28,60.9,0V2.76a27.26,27.26,0,0,1,7.24,1.11A5,5,0,0,1,71.25,7a25,25,0,0,1,.82,7.59V47.19H40v2.75H72.07V83.05a25,25,0,0,1-.82,7.59,5,5,0,0,1-3.11,3.18,27.35,27.35,0,0,1-7.24,1.1v2.76c4.21-.28,10.07-.42,17.52-.42q11.86,0,17.66.42V94.92a27.35,27.35,0,0,1-7.24-1.1,5,5,0,0,1-3.11-3.18,24.94,24.94,0,0,1-.83-7.59V14.63A24.94,24.94,0,0,1,85.73,7Z"/></g></g></svg>