<svg id="Layer_1" data-name="Layer 1" xmlns="http://www.w3.org/2000/svg" width="500" height="500" viewBox="0 0 500 500"><defs><style>.cls-1{fill:#ff8178;}.cls-2{fill:#fff;}.cls-3{fill:#313131;}.cls-4{fill:#4b8bcc;}.cls-5{fill:none;stroke:#313131;stroke-miterlimit:10;stroke-width:2px;}</style></defs><title>concept map image</title><rect class="cls-1" x="21.27" y="126.69" width="112.1" height="184.24"/><rect class="cls-2" x="14.5" y="119.92" width="110.1" height="182.24"/><path class="cls-3" d="M123.6,120.92V301.16H15.5V120.92H123.6m2-2H13.5V303.16H125.6V118.92Z"/><rect class="cls-4" x="194.41" y="123.36" width="132.08" height="250.84"/><rect class="cls-2" x="187.65" y="116.59" width="130.08" height="248.84"/><path class="cls-3" d="M316.72,117.59V364.43H188.65V117.59H316.72m2-2H186.65V366.43H318.72V115.59Z"/><rect class="cls-1" x="363.12" y="110.04" width="128.75" height="208.66"/><rect class="cls-2" x="356.35" y="103.27" width="126.75" height="206.66"/><path class="cls-3" d="M482.1,104.27V308.93H357.35V104.27H482.1m2-2H355.35V310.93H484.1V102.27Z"/><polyline class="cls-5" points="89.53 129.46 138.37 44 359.24 44 402.52 129.46"/><polyline class="cls-5" points="90.08 174.97 150.57 174.97 150.57 146.11 209.95 146.11"/><polyline class="cls-5" points="90.08 278.19 149.46 278.19 166.11 343.68 227.71 343.68"/><polyline class="cls-5" points="39.58 251 39.58 402.5 405.85 402.5 405.85 282.07"/><polyline class="cls-5" points="282.1 255.99 334.82 255.99 348.14 210.49 384.21 210.49"/><polyline class="cls-5" points="261.01 163.87 335.93 163.87 344.81 182.74 435.26 182.74"/></svg>