<svg id="Layer_1" data-name="Layer 1" xmlns="http://www.w3.org/2000/svg" width="1234" height="2358" viewBox="0 0 1234 2358"><defs><style>.cls-1,.cls-14,.cls-17,.cls-7{fill:#ff8178;}.cls-11,.cls-12,.cls-16,.cls-2,.cls-23,.cls-6,.cls-8{fill:#fff;}.cls-20,.cls-3{fill:#313131;}.cls-18,.cls-4{fill:#4b8bcc;}.cls-10,.cls-13,.cls-15,.cls-19,.cls-21,.cls-22,.cls-24,.cls-5,.cls-9{fill:none;}.cls-10,.cls-11,.cls-12,.cls-13,.cls-14,.cls-15,.cls-16,.cls-19,.cls-21,.cls-24,.cls-5,.cls-6,.cls-7,.cls-8,.cls-9{stroke:#313131;}.cls-11,.cls-12,.cls-13,.cls-14,.cls-15,.cls-16,.cls-21,.cls-24,.cls-5,.cls-6,.cls-7,.cls-8{stroke-miterlimit:10;}.cls-16,.cls-5{stroke-width:2px;}.cls-24,.cls-6{stroke-width:3px;}.cls-10,.cls-19,.cls-9{stroke-linecap:round;stroke-linejoin:round;}.cls-9{stroke-width:4.25px;}.cls-10{stroke-width:4.15px;}.cls-11{stroke-width:0.69px;}.cls-12{stroke-width:0.69px;}.cls-13{stroke-width:3.45px;}.cls-14,.cls-15{stroke-width:1.15px;}.cls-17,.cls-18{font-size:87px;}.cls-17,.cls-18,.cls-20{font-family:Roboto-Medium, Roboto;font-weight:500;}.cls-19{stroke-width:3.5px;}.cls-20{font-size:36px;}.cls-21{stroke-width:2.5px;}.cls-23{isolation:isolate;}</style></defs><title>condensed graphic</title><rect class="cls-1" x="73.33" y="119.25" width="101" height="166"/><rect class="cls-2" x="67.33" y="113.25" width="99" height="164"/><path class="cls-3" d="M165.33,114.25v162h-97v-162h97m2-2h-101v166h101v-166Z"/><rect class="cls-4" x="229.33" y="116.25" width="119" height="226"/><rect class="cls-2" x="223.33" y="110.25" width="117" height="224"/><path class="cls-3" d="M339.33,111.25v222h-115v-222h115m2-2h-119v226h119v-226Z"/><rect class="cls-1" x="381.33" y="104.25" width="116" height="188"/><rect class="cls-2" x="375.33" y="98.25" width="114" height="186"/><path class="cls-3" d="M488.33,99.25v184h-112v-184h112m2-2h-116v188h116v-188Z"/><polyline class="cls-5" points="134.83 121.75 178.83 44.75 377.83 44.75 416.83 121.75"/><polyline class="cls-5" points="135.33 162.75 189.83 162.75 189.83 136.75 243.33 136.75"/><polyline class="cls-5" points="135.33 255.75 188.83 255.75 203.83 314.75 259.33 314.75"/><polyline class="cls-5" points="89.83 231.25 89.83 367.75 419.83 367.75 419.83 259.25"/><polyline class="cls-5" points="308.33 235.75 355.83 235.75 367.83 194.75 400.33 194.75"/><polyline class="cls-5" points="289.33 152.75 356.83 152.75 364.83 169.75 446.33 169.75"/><circle class="cls-2" cx="857.67" cy="211" r="31"/><path class="cls-3" d="M857.67,181.5a29.5,29.5,0,1,1-29.5,29.5,29.53,29.53,0,0,1,29.5-29.5m0-3a32.5,32.5,0,1,0,32.5,32.5,32.5,32.5,0,0,0-32.5-32.5Z"/><path class="cls-2" d="M822.67,313V284.68A31.71,31.71,0,0,1,854.35,253H861a31.71,31.71,0,0,1,31.68,31.68V313Z"/><path class="cls-3" d="M861,254.5a30.22,30.22,0,0,1,30.18,30.18V311.5h-67V284.68a30.22,30.22,0,0,1,30.18-30.18H861m0-3h-6.64a33.28,33.28,0,0,0-33.18,33.18V314.5h73V284.68A33.28,33.28,0,0,0,861,251.5Z"/><circle class="cls-2" cx="1098.67" cy="211" r="31"/><path class="cls-3" d="M1098.67,181.5a29.5,29.5,0,1,1-29.5,29.5,29.53,29.53,0,0,1,29.5-29.5m0-3a32.5,32.5,0,1,0,32.5,32.5,32.5,32.5,0,0,0-32.5-32.5Z"/><path class="cls-2" d="M1063.67,313V284.68A31.71,31.71,0,0,1,1095.35,253H1102a31.71,31.71,0,0,1,31.68,31.68V313Z"/><path class="cls-3" d="M1102,254.5a30.22,30.22,0,0,1,30.18,30.18V311.5h-67V284.68a30.22,30.22,0,0,1,30.18-30.18H1102m0-3h-6.64a33.28,33.28,0,0,0-33.18,33.18V314.5h73V284.68A33.28,33.28,0,0,0,1102,251.5Z"/><path class="cls-1" d="M1018.67,160.5c0,17.13-12.32,32.15-30.79,40.5a84.67,84.67,0,0,1-67.42,0H895.67V180.52a36.4,36.4,0,0,1,0-40c7.1-11.25,20-20.11,35.9-24.48a86.63,86.63,0,0,1,45.2,0C1001.24,122.74,1018.67,140.12,1018.67,160.5Z"/><path class="cls-6" d="M1012.67,154.5c0,17.13-12.32,32.15-30.79,40.5a84.67,84.67,0,0,1-67.42,0H889.67V174.52a36.4,36.4,0,0,1,0-40c7.1-11.25,20-20.11,35.9-24.48a86.63,86.63,0,0,1,45.2,0C995.24,116.74,1012.67,134.12,1012.67,154.5Z"/><path class="cls-4" d="M942.67,151.5c0,17.13,12.32,32.15,30.79,40.5a84.67,84.67,0,0,0,67.42,0h24.79V171.52a36.4,36.4,0,0,0,0-40c-7.1-11.25-20-20.11-35.9-24.48a86.63,86.63,0,0,0-45.2,0C960.1,113.74,942.67,131.12,942.67,151.5Z"/><path class="cls-6" d="M948.67,145.5c0,17.13,12.32,32.15,30.79,40.5a84.67,84.67,0,0,0,67.42,0h24.79V165.52a36.4,36.4,0,0,0,0-40c-7.1-11.25-20-20.11-35.9-24.48a86.63,86.63,0,0,0-45.2,0C966.1,107.74,948.67,125.12,948.67,145.5Z"/><rect class="cls-4" x="795.67" y="714.67" width="372" height="300"/><rect class="cls-7" x="788.67" y="707.67" width="93" height="50"/><rect class="cls-7" x="881.67" y="707.67" width="93" height="50"/><rect class="cls-7" x="974.67" y="707.67" width="93" height="50"/><rect class="cls-7" x="1067.67" y="707.67" width="93" height="50"/><rect class="cls-8" x="788.67" y="757.67" width="93" height="50"/><rect class="cls-8" x="881.67" y="757.67" width="93" height="50"/><rect class="cls-8" x="974.67" y="757.67" width="93" height="50"/><rect class="cls-8" x="1067.67" y="757.67" width="93" height="50"/><rect class="cls-8" x="788.67" y="807.67" width="93" height="50"/><rect class="cls-8" x="881.67" y="807.67" width="93" height="50"/><rect class="cls-8" x="974.67" y="807.67" width="93" height="50"/><rect class="cls-8" x="1067.67" y="807.67" width="93" height="50"/><rect class="cls-8" x="788.67" y="857.67" width="93" height="50"/><rect class="cls-8" x="881.67" y="857.67" width="93" height="50"/><rect class="cls-8" x="974.67" y="857.67" width="93" height="50"/><rect class="cls-8" x="1067.67" y="857.67" width="93" height="50"/><rect class="cls-8" x="788.67" y="907.67" width="93" height="50"/><rect class="cls-8" x="881.67" y="907.67" width="93" height="50"/><rect class="cls-8" x="974.67" y="907.67" width="93" height="50"/><rect class="cls-8" x="1067.67" y="907.67" width="93" height="50"/><rect class="cls-8" x="788.67" y="957.67" width="93" height="50"/><rect class="cls-8" x="881.67" y="957.67" width="93" height="50"/><rect class="cls-8" x="974.67" y="957.67" width="93" height="50"/><rect class="cls-8" x="1067.67" y="957.67" width="93" height="50"/><polyline class="cls-9" points="1130.67 771.41 1107.3 794.78 1096.67 784.16"/><polyline class="cls-9" points="1037.67 774.41 1014.3 797.78 1003.67 787.16"/><polyline class="cls-9" points="852.67 774.41 829.3 797.78 818.67 787.16"/><polyline class="cls-9" points="944.67 821.41 921.3 844.78 910.67 834.16"/><polyline class="cls-9" points="1037.67 821.41 1014.3 844.78 1003.67 834.16"/><polyline class="cls-9" points="1131.67 821.41 1108.3 844.78 1097.67 834.16"/><polyline class="cls-9" points="851.67 871.41 828.3 894.78 817.67 884.16"/><line class="cls-10" x1="939.93" y1="770.67" x2="915.01" y2="795.59"/><line class="cls-10" x1="915.01" y1="770.67" x2="939.93" y2="795.59"/><line class="cls-10" x1="846.93" y1="820.67" x2="822.01" y2="845.59"/><line class="cls-10" x1="822.01" y1="820.67" x2="846.93" y2="845.59"/><line class="cls-10" x1="939.93" y1="870.67" x2="915.01" y2="895.59"/><line class="cls-10" x1="915.01" y1="870.67" x2="939.93" y2="895.59"/><line class="cls-10" x1="1032.93" y1="870.67" x2="1008.01" y2="895.59"/><line class="cls-10" x1="1008.01" y1="870.67" x2="1032.93" y2="895.59"/><line class="cls-10" x1="1126.93" y1="870.67" x2="1102.01" y2="895.59"/><line class="cls-10" x1="1102.01" y1="870.67" x2="1126.93" y2="895.59"/><circle class="cls-3" cx="834.17" cy="932.17" r="6.5"/><circle class="cls-3" cx="1105.17" cy="932.17" r="6.5"/><circle class="cls-3" cx="1124.42" cy="932.17" r="6.5"/><circle class="cls-3" cx="918.17" cy="932.17" r="6.5"/><circle class="cls-3" cx="937.42" cy="932.17" r="6.5"/><circle class="cls-3" cx="1020.67" cy="932.17" r="6.5"/><circle class="cls-3" cx="1040.17" cy="932.17" r="6.5"/><circle class="cls-3" cx="1001.17" cy="932.17" r="6.5"/><circle class="cls-3" cx="833.67" cy="982.67" r="12"/><circle class="cls-11" cx="1020.17" cy="982.17" r="12"/><circle class="cls-12" cx="927.3" cy="982.54" r="12.12"/><path class="cls-3" d="M927,970.42v24.24a12.12,12.12,0,0,1,0-24.24Z"/><circle class="cls-12" cx="1114.3" cy="982.54" r="12.12"/><path class="cls-3" d="M1114,970.42v24.24a12.12,12.12,0,0,1,0-24.24Z"/><rect class="cls-4" x="165.76" y="689.74" width="241.21" height="351.93"/><rect class="cls-2" x="157.55" y="681.54" width="239.48" height="350.19"/><path class="cls-3" d="M396.16,682.4v348.46H158.42V682.4H396.16m1.74-1.73H156.69v351.92H397.9V680.67Z"/><line class="cls-13" x1="193.96" y1="711.98" x2="350.51" y2="711.98"/><line class="cls-13" x1="193.96" y1="752.98" x2="284.16" y2="752.98"/><line class="cls-13" x1="193.96" y1="724.65" x2="327.4" y2="724.65"/><line class="cls-13" x1="193.96" y1="738.07" x2="272.23" y2="738.07"/><line class="cls-13" x1="280.43" y1="738.07" x2="346.78" y2="738.07"/><rect class="cls-14" x="194.11" y="783.17" width="22.36" height="22.36"/><line class="cls-15" x1="230.93" y1="788.39" x2="320.39" y2="788.39"/><line class="cls-15" x1="230.93" y1="794.35" x2="300.26" y2="794.35"/><line class="cls-15" x1="230.93" y1="800.31" x2="277.9" y2="800.31"/><line class="cls-15" x1="283.12" y1="800.31" x2="310.7" y2="800.31"/><rect class="cls-14" x="194.11" y="821.93" width="22.36" height="22.36"/><line class="cls-15" x1="230.93" y1="827.15" x2="320.39" y2="827.15"/><line class="cls-15" x1="230.93" y1="833.11" x2="300.26" y2="833.11"/><line class="cls-15" x1="230.93" y1="839.08" x2="277.9" y2="839.08"/><line class="cls-15" x1="283.12" y1="839.08" x2="310.7" y2="839.08"/><rect class="cls-14" x="194.11" y="860.7" width="22.36" height="22.36"/><line class="cls-15" x1="230.93" y1="865.91" x2="320.39" y2="865.91"/><line class="cls-15" x1="230.93" y1="871.88" x2="300.26" y2="871.88"/><line class="cls-15" x1="230.93" y1="877.84" x2="277.9" y2="877.84"/><line class="cls-15" x1="283.12" y1="877.84" x2="310.7" y2="877.84"/><rect class="cls-14" x="194.11" y="938.22" width="22.36" height="22.36"/><line class="cls-15" x1="230.93" y1="943.44" x2="320.39" y2="943.44"/><line class="cls-15" x1="230.93" y1="949.41" x2="300.26" y2="949.41"/><line class="cls-15" x1="230.93" y1="955.37" x2="277.9" y2="955.37"/><line class="cls-15" x1="283.12" y1="955.37" x2="310.7" y2="955.37"/><rect class="cls-14" x="194.11" y="899.46" width="22.36" height="22.36"/><line class="cls-15" x1="230.93" y1="904.68" x2="320.39" y2="904.68"/><line class="cls-15" x1="230.93" y1="910.64" x2="300.26" y2="910.64"/><line class="cls-15" x1="230.93" y1="916.61" x2="277.9" y2="916.61"/><line class="cls-15" x1="283.12" y1="916.61" x2="310.7" y2="916.61"/><rect class="cls-4" x="857.35" y="1393.05" width="246.5" height="130.5"/><rect class="cls-16" x="848.87" y="1384.59" width="246.5" height="130.5"/><text class="cls-17" transform="translate(943.17 1484.88)">A</text><rect class="cls-1" x="860.98" y="1573.09" width="246.5" height="130.5"/><rect class="cls-16" x="852.97" y="1564.63" width="246.5" height="130.5"/><text class="cls-18" transform="translate(948.78 1664.92)">B</text><circle class="cls-4" cx="1050.68" cy="1570.67" r="31.42"/><polyline class="cls-19" points="1067.6 1559.05 1044.34 1582.31 1033.77 1571.73"/><rect class="cls-1" x="85.33" y="1397.43" width="400" height="300"/><rect class="cls-2" x="79.2" y="1391.62" width="398.26" height="298.26"/><path class="cls-3" d="M476.59,1392.49V1689H80.06V1392.49H476.59m1.74-1.74h-400v300h400v-300Z"/><text class="cls-20" transform="translate(98.93 1453.37)">1.<tspan x="0" y="48">2.</tspan><tspan x="0" y="96">3.</tspan><tspan x="0" y="144">4.</tspan><tspan x="0" y="192">5.</tspan></text><text class="cls-20" transform="translate(285.93 1453.37)">6.<tspan x="0" y="48">7.</tspan><tspan x="0" y="96">8.</tspan><tspan x="0" y="144">9.</tspan><tspan x="0" y="192">10.</tspan></text><line class="cls-21" x1="138.81" y1="1428.59" x2="233.02" y2="1428.59"/><line class="cls-21" x1="138.81" y1="1437.2" x2="193.1" y2="1437.2"/><line class="cls-21" x1="138.81" y1="1445.82" x2="219.12" y2="1445.82"/><line class="cls-21" x1="197.52" y1="1437.27" x2="244.63" y2="1437.27"/><line class="cls-21" x1="138.81" y1="1454.43" x2="178.74" y2="1454.43"/><line class="cls-21" x1="138.81" y1="1476.34" x2="233.02" y2="1476.34"/><line class="cls-21" x1="138.81" y1="1484.95" x2="193.1" y2="1484.95"/><line class="cls-21" x1="138.81" y1="1493.57" x2="219.12" y2="1493.57"/><line class="cls-21" x1="197.52" y1="1485.02" x2="244.63" y2="1485.02"/><line class="cls-21" x1="138.81" y1="1502.18" x2="178.74" y2="1502.18"/><line class="cls-21" x1="138.81" y1="1524.09" x2="233.02" y2="1524.09"/><line class="cls-21" x1="138.81" y1="1532.7" x2="193.1" y2="1532.7"/><line class="cls-21" x1="138.81" y1="1541.32" x2="219.12" y2="1541.32"/><line class="cls-21" x1="197.52" y1="1532.77" x2="244.63" y2="1532.77"/><line class="cls-21" x1="138.81" y1="1549.93" x2="178.74" y2="1549.93"/><line class="cls-21" x1="138.81" y1="1571.84" x2="233.02" y2="1571.84"/><line class="cls-21" x1="138.81" y1="1580.45" x2="193.1" y2="1580.45"/><line class="cls-21" x1="138.81" y1="1589.07" x2="219.12" y2="1589.07"/><line class="cls-21" x1="197.52" y1="1580.52" x2="244.63" y2="1580.52"/><line class="cls-21" x1="138.81" y1="1597.68" x2="178.74" y2="1597.68"/><line class="cls-21" x1="138.81" y1="1619.59" x2="233.02" y2="1619.59"/><line class="cls-21" x1="138.81" y1="1628.2" x2="193.1" y2="1628.2"/><line class="cls-21" x1="138.81" y1="1636.82" x2="219.12" y2="1636.82"/><line class="cls-21" x1="197.52" y1="1628.27" x2="244.63" y2="1628.27"/><line class="cls-21" x1="138.81" y1="1645.43" x2="178.74" y2="1645.43"/><line class="cls-21" x1="340.81" y1="1428.59" x2="435.02" y2="1428.59"/><line class="cls-21" x1="340.81" y1="1437.2" x2="395.1" y2="1437.2"/><line class="cls-21" x1="340.81" y1="1445.82" x2="421.12" y2="1445.82"/><line class="cls-21" x1="399.52" y1="1437.27" x2="446.63" y2="1437.27"/><line class="cls-21" x1="340.81" y1="1454.43" x2="380.74" y2="1454.43"/><line class="cls-21" x1="340.81" y1="1476.34" x2="435.02" y2="1476.34"/><line class="cls-21" x1="340.81" y1="1484.95" x2="395.1" y2="1484.95"/><line class="cls-21" x1="340.81" y1="1493.57" x2="421.12" y2="1493.57"/><line class="cls-21" x1="399.52" y1="1485.02" x2="446.63" y2="1485.02"/><line class="cls-21" x1="340.81" y1="1502.18" x2="380.74" y2="1502.18"/><line class="cls-21" x1="340.81" y1="1524.09" x2="435.02" y2="1524.09"/><line class="cls-21" x1="340.81" y1="1532.7" x2="395.1" y2="1532.7"/><line class="cls-21" x1="340.81" y1="1541.32" x2="421.12" y2="1541.32"/><line class="cls-21" x1="399.52" y1="1532.77" x2="446.63" y2="1532.77"/><line class="cls-21" x1="340.81" y1="1549.93" x2="380.74" y2="1549.93"/><line class="cls-21" x1="340.81" y1="1571.84" x2="435.02" y2="1571.84"/><line class="cls-21" x1="340.81" y1="1580.45" x2="395.1" y2="1580.45"/><line class="cls-21" x1="340.81" y1="1589.07" x2="421.12" y2="1589.07"/><line class="cls-21" x1="399.52" y1="1580.52" x2="446.63" y2="1580.52"/><line class="cls-21" x1="340.81" y1="1597.68" x2="380.74" y2="1597.68"/><line class="cls-21" x1="340.81" y1="1619.59" x2="435.02" y2="1619.59"/><line class="cls-21" x1="340.81" y1="1628.2" x2="395.1" y2="1628.2"/><line class="cls-21" x1="340.81" y1="1636.82" x2="421.12" y2="1636.82"/><line class="cls-21" x1="399.52" y1="1628.27" x2="446.63" y2="1628.27"/><line class="cls-21" x1="340.81" y1="1645.43" x2="380.74" y2="1645.43"/><polygon class="cls-4" points="993.42 2257 993.42 2301 1046.42 2301 1046.42 2309 916.42 2309 916.42 2301 969.42 2301 969.42 2257 802.42 2257 802.42 2068 1160.42 2068 1160.42 2257 993.42 2257"/><rect class="cls-6" x="795.92" y="2060.5" width="357" height="189"/><polygon class="cls-6" points="1038.92 2294.5 1038.92 2302.5 909.92 2302.5 909.92 2294.5 962.92 2294.5 962.92 2250.5 986.92 2250.5 986.92 2294.5 1038.92 2294.5"/><rect class="cls-16" x="832.42" y="2088" width="116" height="54"/><rect class="cls-16" x="832.42" y="2155" width="52" height="58"/><rect class="cls-16" x="897.42" y="2154" width="51.5" height="79.5"/><line class="cls-13" x1="994.18" y1="2088.16" x2="1114.97" y2="2088.16"/><line class="cls-13" x1="994.18" y1="2119.79" x2="1063.78" y2="2119.79"/><line class="cls-13" x1="994.18" y1="2097.94" x2="1097.14" y2="2097.94"/><line class="cls-13" x1="994.18" y1="2108.29" x2="1054.58" y2="2108.29"/><line class="cls-13" x1="1060.91" y1="2108.29" x2="1112.1" y2="2108.29"/><line class="cls-13" x1="994.18" y1="2162.16" x2="1114.97" y2="2162.16"/><line class="cls-13" x1="994.18" y1="2193.79" x2="1063.78" y2="2193.79"/><line class="cls-13" x1="994.18" y1="2171.94" x2="1097.14" y2="2171.94"/><line class="cls-13" x1="994.18" y1="2182.29" x2="1054.58" y2="2182.29"/><line class="cls-13" x1="1060.91" y1="2182.29" x2="1112.1" y2="2182.29"/><circle class="cls-1" cx="1100.42" cy="2092" r="42"/><path class="cls-22" d="M1150.42,2023h-115v115h115Z"/><path class="cls-23" d="M1093,2051.65a33.54,33.54,0,1,1-33.55,33.54A33.51,33.51,0,0,1,1093,2051.65Zm-4.85,38.43h9.58v-28.75h-9.58Z"/><path class="cls-3" d="M1107.3,2027.79h-28.75v9.59h28.75Zm-9.59,33.54h-9.58v28.75h9.58Zm-38.42-3.07-6.8-6.81a53.14,53.14,0,0,1,6.75-6.75l6.81,6.8a43.13,43.13,0,1,1-6.76,6.76Zm33.69,60.47a33.54,33.54,0,1,0-33.55-33.54A33.52,33.52,0,0,0,1093,2118.73Z"/><line class="cls-24" x1="534.17" y1="206.25" x2="760.99" y2="206.25"/><polygon class="cls-3" points="782.17 206.25 752.32 218.45 759.4 206.25 752.32 194.06 782.17 206.25"/><line class="cls-24" x1="978.17" y1="368" x2="978.17" y2="594.82"/><polygon class="cls-3" points="978.17 616 965.98 586.15 978.17 593.24 990.37 586.15 978.17 616"/><line class="cls-24" x1="719.17" y1="861.17" x2="492.35" y2="861.17"/><polygon class="cls-3" points="471.17 861.17 501.01 848.97 493.93 861.17 501.01 873.36 471.17 861.17"/><line class="cls-24" x1="281.83" y1="1092" x2="281.83" y2="1318.82"/><polygon class="cls-3" points="281.83 1340 269.63 1310.15 281.83 1317.23 294.02 1310.15 281.83 1340"/><line class="cls-24" x1="544.17" y1="1544.09" x2="770.99" y2="1544.09"/><polygon class="cls-3" points="792.17 1544.09 762.32 1556.29 769.4 1544.09 762.32 1531.9 792.17 1544.09"/><line class="cls-24" x1="978.17" y1="1758" x2="978.17" y2="1984.82"/><polygon class="cls-3" points="978.17 2006 965.98 1976.15 978.17 1983.23 990.37 1976.15 978.17 2006"/></svg>