<svg id="Layer_1" data-name="Layer 1" xmlns="http://www.w3.org/2000/svg" width="500" height="500" viewBox="0 0 500 500"><defs><style>.cls-1,.cls-4{fill:#fff;}.cls-2{fill:#313131;}.cls-3{fill:#ff8178;}.cls-4{stroke:#313131;stroke-miterlimit:10;stroke-width:3px;}.cls-5{fill:#4b8bcc;}</style></defs><title>interview image</title><circle class="cls-1" cx="80.09" cy="269.71" r="44.44" transform="translate(-198.97 305.57) rotate(-80.78)"/><path class="cls-2" d="M80.09,226.78a42.94,42.94,0,1,1-42.94,42.93,43,43,0,0,1,42.94-42.93m0-3A45.94,45.94,0,1,0,126,269.71a45.93,45.93,0,0,0-45.93-45.93Z"/><path class="cls-1" d="M30,414.5V373.85a45.44,45.44,0,0,1,45.4-45.39h9.38a45.45,45.45,0,0,1,45.4,45.39V414.5Z"/><path class="cls-2" d="M84.78,330a43.94,43.94,0,0,1,43.9,43.89V413H31.5V373.85A43.94,43.94,0,0,1,75.4,330h9.38m0-3H75.4a47,47,0,0,0-46.9,46.89V416H131.68V373.85A47,47,0,0,0,84.78,327Z"/><circle class="cls-1" cx="420.72" cy="269.71" r="44.44" transform="translate(-71.19 181.53) rotate(-22.5)"/><path class="cls-2" d="M420.72,226.78a42.94,42.94,0,1,1-42.94,42.93,43,43,0,0,1,42.94-42.93m0-3a45.94,45.94,0,1,0,45.93,45.93,45.93,45.93,0,0,0-45.93-45.93Z"/><path class="cls-1" d="M370.63,414.5V373.85A45.44,45.44,0,0,1,416,328.46h9.39a45.45,45.45,0,0,1,45.4,45.39V414.5Z"/><path class="cls-2" d="M425.41,330a44,44,0,0,1,43.9,43.89V413H372.13V373.85A43.94,43.94,0,0,1,416,330h9.39m0-3H416a47,47,0,0,0-46.89,46.89V416H472.31V373.85A47,47,0,0,0,425.41,327Z"/><path class="cls-3" d="M307.65,198.34c0,24.21-17.42,45.44-43.52,57.24a119.71,119.71,0,0,1-95.29,0h-35v-29a51.45,51.45,0,0,1,0-56.59c10-15.9,28.29-28.42,50.74-34.6a122.42,122.42,0,0,1,63.88,0C283,145,307.65,169.53,307.65,198.34Z"/><path class="cls-4" d="M299.17,189.86c0,24.21-17.42,45.44-43.52,57.24a119.71,119.71,0,0,1-95.29,0h-35V218.15a51.45,51.45,0,0,1,0-56.59c10-15.9,28.29-28.42,50.74-34.6a122.42,122.42,0,0,1,63.88,0C274.53,136.49,299.17,161.05,299.17,189.86Z"/><path class="cls-5" d="M200.23,185.62c0,24.21,17.41,45.44,43.52,57.24a119.71,119.71,0,0,0,95.29,0h35v-29a51.45,51.45,0,0,0,0-56.59c-10-15.9-28.3-28.42-50.75-34.6a122.42,122.42,0,0,0-63.88,0C224.86,132.25,200.23,156.81,200.23,185.62Z"/><path class="cls-4" d="M208.71,177.14c0,24.21,17.41,45.44,43.52,57.24a119.71,119.71,0,0,0,95.29,0h35V205.43a51.45,51.45,0,0,0,0-56.59c-10-15.9-28.3-28.42-50.75-34.6a122.42,122.42,0,0,0-63.88,0C233.34,123.77,208.71,148.33,208.71,177.14Z"/></svg>