<svg id="Layer_1" data-name="Layer 1" xmlns="http://www.w3.org/2000/svg" width="500" height="500" viewBox="0 0 500 500"><defs><style>.cls-1{fill:#4b8bcc;}.cls-2{fill:#fff;}.cls-3{fill:#313131;}.cls-4,.cls-6{fill:none;}.cls-4,.cls-5,.cls-6{stroke:#313131;stroke-miterlimit:10;}.cls-4{stroke-width:3.45px;}.cls-5{fill:#ff8178;}.cls-5,.cls-6{stroke-width:1.15px;}</style></defs><title>survey image</title><rect class="cls-1" x="113.6" y="27.89" width="316.05" height="461.11"/><rect class="cls-2" x="102.58" y="16.87" width="314.31" height="459.38"/><path class="cls-3" d="M416,17.74V475.38H103.45V17.74H416M417.76,16h-316V477.11H417.76V16Z"/><line class="cls-4" x1="150.55" y1="57.02" x2="355.67" y2="57.02"/><line class="cls-4" x1="150.55" y1="110.74" x2="268.74" y2="110.74"/><line class="cls-4" x1="150.55" y1="73.63" x2="325.39" y2="73.63"/><line class="cls-4" x1="150.55" y1="91.21" x2="253.11" y2="91.21"/><line class="cls-4" x1="263.85" y1="91.21" x2="350.78" y2="91.21"/><rect class="cls-5" x="150.75" y="150.3" width="29.3" height="29.3"/><line class="cls-6" x1="199" y1="157.14" x2="316.21" y2="157.14"/><line class="cls-6" x1="199" y1="164.95" x2="289.83" y2="164.95"/><line class="cls-6" x1="199" y1="172.77" x2="260.53" y2="172.77"/><line class="cls-6" x1="267.37" y1="172.77" x2="303.51" y2="172.77"/><rect class="cls-5" x="150.75" y="201.09" width="29.3" height="29.3"/><line class="cls-6" x1="199" y1="207.93" x2="316.21" y2="207.93"/><line class="cls-6" x1="199" y1="215.74" x2="289.83" y2="215.74"/><line class="cls-6" x1="199" y1="223.56" x2="260.53" y2="223.56"/><line class="cls-6" x1="267.37" y1="223.56" x2="303.51" y2="223.56"/><rect class="cls-5" x="150.75" y="251.88" width="29.3" height="29.3"/><line class="cls-6" x1="199" y1="258.72" x2="316.21" y2="258.72"/><line class="cls-6" x1="199" y1="266.53" x2="289.83" y2="266.53"/><line class="cls-6" x1="199" y1="274.35" x2="260.53" y2="274.35"/><line class="cls-6" x1="267.37" y1="274.35" x2="303.51" y2="274.35"/><rect class="cls-5" x="150.75" y="353.46" width="29.3" height="29.3"/><line class="cls-6" x1="199" y1="360.3" x2="316.21" y2="360.3"/><line class="cls-6" x1="199" y1="368.12" x2="289.83" y2="368.12"/><line class="cls-6" x1="199" y1="375.93" x2="260.53" y2="375.93"/><line class="cls-6" x1="267.37" y1="375.93" x2="303.51" y2="375.93"/><rect class="cls-5" x="150.75" y="302.67" width="29.3" height="29.3"/><line class="cls-6" x1="199" y1="309.51" x2="316.21" y2="309.51"/><line class="cls-6" x1="199" y1="317.33" x2="289.83" y2="317.33"/><line class="cls-6" x1="199" y1="325.14" x2="260.53" y2="325.14"/><line class="cls-6" x1="267.37" y1="325.14" x2="303.51" y2="325.14"/></svg>